{
    "asset" : {
        "generator" : "Khronos glTF Blender I/O v1.1.46",
        "version" : "2.0"
    },
    "scene" : 0,
    "scenes" : [
        {
            "name" : "Scene",
            "nodes" : [
                0
            ]
        }
    ],
    "nodes" : [
        {
            "mesh" : 0,
            "name" : "Hulk-1",
            "rotation" : [
                0.4999999701976776,
                0.5,
                -0.5,
                0.4999999701976776
            ],
            "scale" : [
                5,
                5,
                5
            ]
        }
    ],
    "materials" : [
        {
            "doubleSided" : true,
            "emissiveFactor" : [
                0,
                0,
                0
            ],
            "name" : "Hulk_1",
            "normalTexture" : {
                "index" : 0,
                "texCoord" : 0
            },
            "pbrMetallicRoughness" : {
                "baseColorTexture" : {
                    "index" : 1,
                    "texCoord" : 0
                },
                "metallicFactor" : 0,
                "roughnessFactor" : 0.8945907354354858
            }
        }
    ],
    "meshes" : [
        {
            "name" : "Hulk-1",
            "primitives" : [
                {
                    "attributes" : {
                        "POSITION" : 0,
                        "NORMAL" : 1,
                        "TEXCOORD_0" : 2
                    },
                    "indices" : 3,
                    "material" : 0
                }
            ]
        }
    ],
    "textures" : [
        {
            "source" : 0
        },
        {
            "source" : 1
        }
    ],
    "images" : [
        {
            "bufferView" : 4,
            "mimeType" : "image/png",
            "name" : "Hulk-n"
        },
        {
            "bufferView" : 5,
            "mimeType" : "image/png",
            "name" : "Hulk-d"
        }
    ],
    "accessors" : [
        {
            "bufferView" : 0,
            "componentType" : 5126,
            "count" : 7078,
            "max" : [
                3.7109999656677246,
                1.1442999839782715,
                0.03830000013113022
            ],
            "min" : [
                -3.7109999656677246,
                -1.0943000316619873,
                -6.5971999168396
            ],
            "type" : "VEC3"
        },
        {
            "bufferView" : 1,
            "componentType" : 5126,
            "count" : 7078,
            "type" : "VEC3"
        },
        {
            "bufferView" : 2,
            "componentType" : 5126,
            "count" : 7078,
            "type" : "VEC2"
        },
        {
            "bufferView" : 3,
            "componentType" : 5123,
            "count" : 35499,
            "type" : "SCALAR"
        }
    ],
    "bufferViews" : [
        {
            "buffer" : 0,
            "byteLength" : 84936,
            "byteOffset" : 0
        },
        {
            "buffer" : 0,
            "byteLength" : 84936,
            "byteOffset" : 84936
        },
        {
            "buffer" : 0,
            "byteLength" : 56624,
            "byteOffset" : 169872
        },
        {
            "buffer" : 0,
            "byteLength" : 70998,
            "byteOffset" : 226496
        },
        {
            "buffer" : 0,
            "byteLength" : 1245018,
            "byteOffset" : 297496
        },
        {
            "buffer" : 0,
            "byteLength" : 550883,
            "byteOffset" : 1542516
        }
    ],
    "buffers" : [
        {
            "byteLength" : 2093400,
            "uri" : "data:application/octet-stream;base64,"
        }
    ]
}
