{
    "asset" : {
        "generator" : "Khronos glTF Blender I/O v1.1.46",
        "version" : "2.0"
    },
    "scene" : 0,
    "scenes" : [
        {
            "name" : "Scene",
            "nodes" : [
                0
            ]
        }
    ],
    "nodes" : [
        {
            "mesh" : 0,
            "name" : "Vision Age Of Ultron",
            "rotation" : [
                0.7071067690849304,
                0,
                0,
                0.7071067690849304
            ]
        }
    ],
    "materials" : [
        {
            "doubleSided" : true,
            "emissiveFactor" : [
                0,
                0,
                0
            ],
            "name" : "_cuerpoMaterial__48",
            "pbrMetallicRoughness" : {
                "baseColorTexture" : {
                    "index" : 0,
                    "texCoord" : 0
                },
                "metallicFactor" : 0,
                "roughnessFactor" : 0.8945907354354858
            }
        },
        {
            "doubleSided" : true,
            "emissiveFactor" : [
                0,
                0,
                0
            ],
            "name" : "_capaMaterial__49",
            "pbrMetallicRoughness" : {
                "baseColorTexture" : {
                    "index" : 1,
                    "texCoord" : 0
                },
                "metallicFactor" : 0,
                "roughnessFactor" : 0.8945907354354858
            }
        }
    ],
    "meshes" : [
        {
            "name" : "Vision Age Of Ultron",
            "primitives" : [
                {
                    "attributes" : {
                        "POSITION" : 0,
                        "NORMAL" : 1,
                        "TEXCOORD_0" : 2
                    },
                    "indices" : 3,
                    "material" : 0
                },
                {
                    "attributes" : {
                        "POSITION" : 4,
                        "NORMAL" : 5,
                        "TEXCOORD_0" : 6
                    },
                    "indices" : 7,
                    "material" : 1
                }
            ]
        }
    ],
    "textures" : [
        {
            "source" : 0
        },
        {
            "source" : 1
        }
    ],
    "images" : [
        {
            "bufferView" : 4,
            "mimeType" : "image/jpeg",
            "name" : "vision_ageofultron_diff"
        },
        {
            "bufferView" : 9,
            "mimeType" : "image/jpeg",
            "name" : "vision_ageofultron_cape_diff"
        }
    ],
    "accessors" : [
        {
            "bufferView" : 0,
            "componentType" : 5126,
            "count" : 26724,
            "max" : [
                13.129199981689453,
                32.464599609375,
                0.016899999231100082
            ],
            "min" : [
                -6.310800075531006,
                -32.464599609375,
                -95.99240112304688
            ],
            "type" : "VEC3"
        },
        {
            "bufferView" : 1,
            "componentType" : 5126,
            "count" : 26724,
            "type" : "VEC3"
        },
        {
            "bufferView" : 2,
            "componentType" : 5126,
            "count" : 26724,
            "type" : "VEC2"
        },
        {
            "bufferView" : 3,
            "componentType" : 5123,
            "count" : 26724,
            "type" : "SCALAR"
        },
        {
            "bufferView" : 5,
            "componentType" : 5126,
            "count" : 1254,
            "max" : [
                1.7111999988555908,
                24.722700119018555,
                -0.33970001339912415
            ],
            "min" : [
                -15.316499710083008,
                -24.722700119018555,
                -80.79319763183594
            ],
            "type" : "VEC3"
        },
        {
            "bufferView" : 6,
            "componentType" : 5126,
            "count" : 1254,
            "type" : "VEC3"
        },
        {
            "bufferView" : 7,
            "componentType" : 5126,
            "count" : 1254,
            "type" : "VEC2"
        },
        {
            "bufferView" : 8,
            "componentType" : 5123,
            "count" : 1254,
            "type" : "SCALAR"
        }
    ],
    "bufferViews" : [
        {
            "buffer" : 0,
            "byteLength" : 320688,
            "byteOffset" : 0
        },
        {
            "buffer" : 0,
            "byteLength" : 320688,
            "byteOffset" : 320688
        },
        {
            "buffer" : 0,
            "byteLength" : 213792,
            "byteOffset" : 641376
        },
        {
            "buffer" : 0,
            "byteLength" : 53448,
            "byteOffset" : 855168
        },
        {
            "buffer" : 0,
            "byteLength" : 382358,
            "byteOffset" : 908616
        },
        {
            "buffer" : 0,
            "byteLength" : 15048,
            "byteOffset" : 1290976
        },
        {
            "buffer" : 0,
            "byteLength" : 15048,
            "byteOffset" : 1306024
        },
        {
            "buffer" : 0,
            "byteLength" : 10032,
            "byteOffset" : 1321072
        },
        {
            "buffer" : 0,
            "byteLength" : 2508,
            "byteOffset" : 1331104
        },
        {
            "buffer" : 0,
            "byteLength" : 156980,
            "byteOffset" : 1333612
        }
    ],
    "buffers" : [
        {
            "byteLength" : 1490592,
            "uri" : "data:application/octet-stream;base64,"
        }
    ]
}
