{
    "asset" : {
        "generator" : "Khronos glTF Blender I/O v1.1.46",
        "version" : "2.0"
    },
    "scene" : 0,
    "scenes" : [
        {
            "name" : "Scene",
            "nodes" : [
                0
            ]
        }
    ],
    "nodes" : [
        {
            "mesh" : 0,
            "name" : "Green Goblin",
            "rotation" : [
                0.7071067690849304,
                0,
                0,
                0.7071067690849304
            ]
        }
    ],
    "materials" : [
        {
            "doubleSided" : true,
            "emissiveFactor" : [
                0,
                0,
                0
            ],
            "name" : "Mat_1",
            "pbrMetallicRoughness" : {
                "baseColorTexture" : {
                    "index" : 0,
                    "texCoord" : 0
                },
                "metallicFactor" : 0,
                "roughnessFactor" : 0.5
            }
        },
        {
            "doubleSided" : true,
            "emissiveFactor" : [
                0,
                0,
                0
            ],
            "name" : "Mat",
            "pbrMetallicRoughness" : {
                "baseColorTexture" : {
                    "index" : 1,
                    "texCoord" : 0
                },
                "metallicFactor" : 0,
                "roughnessFactor" : 0.5
            }
        }
    ],
    "meshes" : [
        {
            "name" : "Green Goblin",
            "primitives" : [
                {
                    "attributes" : {
                        "POSITION" : 0,
                        "NORMAL" : 1,
                        "TEXCOORD_0" : 2
                    },
                    "indices" : 3,
                    "material" : 0
                },
                {
                    "attributes" : {
                        "POSITION" : 4,
                        "NORMAL" : 5,
                        "TEXCOORD_0" : 6
                    },
                    "indices" : 7,
                    "material" : 1
                }
            ]
        }
    ],
    "textures" : [
        {
            "source" : 0
        },
        {
            "source" : 1
        }
    ],
    "images" : [
        {
            "bufferView" : 4,
            "mimeType" : "image/png",
            "name" : "GreenGoblin_Classic_Diff"
        },
        {
            "bufferView" : 9,
            "mimeType" : "image/png",
            "name" : "GreenGoblin_Glider_Spec"
        }
    ],
    "accessors" : [
        {
            "bufferView" : 0,
            "componentType" : 5126,
            "count" : 43530,
            "max" : [
                4.607399940490723,
                16.839399337768555,
                0.12150000035762787
            ],
            "min" : [
                -15.006799697875977,
                -16.83930015563965,
                -39.84550094604492
            ],
            "type" : "VEC3"
        },
        {
            "bufferView" : 1,
            "componentType" : 5126,
            "count" : 43530,
            "type" : "VEC3"
        },
        {
            "bufferView" : 2,
            "componentType" : 5126,
            "count" : 43530,
            "type" : "VEC2"
        },
        {
            "bufferView" : 3,
            "componentType" : 5123,
            "count" : 43530,
            "type" : "SCALAR"
        },
        {
            "bufferView" : 5,
            "componentType" : 5126,
            "count" : 11814,
            "max" : [
                24.244678497314453,
                20.62980079650879,
                3.466900110244751
            ],
            "min" : [
                4.992177963256836,
                -20.62980079650879,
                -3.466900110244751
            ],
            "type" : "VEC3"
        },
        {
            "bufferView" : 6,
            "componentType" : 5126,
            "count" : 11814,
            "type" : "VEC3"
        },
        {
            "bufferView" : 7,
            "componentType" : 5126,
            "count" : 11814,
            "type" : "VEC2"
        },
        {
            "bufferView" : 8,
            "componentType" : 5123,
            "count" : 11814,
            "type" : "SCALAR"
        }
    ],
    "bufferViews" : [
        {
            "buffer" : 0,
            "byteLength" : 522360,
            "byteOffset" : 0
        },
        {
            "buffer" : 0,
            "byteLength" : 522360,
            "byteOffset" : 522360
        },
        {
            "buffer" : 0,
            "byteLength" : 348240,
            "byteOffset" : 1044720
        },
        {
            "buffer" : 0,
            "byteLength" : 87060,
            "byteOffset" : 1392960
        },
        {
            "buffer" : 0,
            "byteLength" : 932230,
            "byteOffset" : 1480020
        },
        {
            "buffer" : 0,
            "byteLength" : 141768,
            "byteOffset" : 2412252
        },
        {
            "buffer" : 0,
            "byteLength" : 141768,
            "byteOffset" : 2554020
        },
        {
            "buffer" : 0,
            "byteLength" : 94512,
            "byteOffset" : 2695788
        },
        {
            "buffer" : 0,
            "byteLength" : 23628,
            "byteOffset" : 2790300
        },
        {
            "buffer" : 0,
            "byteLength" : 231685,
            "byteOffset" : 2813928
        }
    ],
    "buffers" : [
        {
            "byteLength" : 3045616,
            "uri" : "data:application/octet-stream;base64,"
        }
    ]
}
