{
    "asset" : {
        "generator" : "Khronos glTF Blender I/O v1.1.46",
        "version" : "2.0"
    },
    "scene" : 0,
    "scenes" : [
        {
            "name" : "Scene",
            "nodes" : [
                0
            ]
        }
    ],
    "nodes" : [
        {
            "mesh" : 0,
            "name" : "4",
            "rotation" : [
                0.5,
                -0.5,
                0.5,
                0.4999999701976776
            ],
            "translation" : [
                0,
                41.57825469970703,
                3.7439675331115723
            ]
        }
    ],
    "materials" : [
        {
            "doubleSided" : true,
            "emissiveFactor" : [
                0,
                0,
                0
            ],
            "name" : "Falcon_Fix",
            "normalTexture" : {
                "index" : 0,
                "texCoord" : 0
            },
            "pbrMetallicRoughness" : {
                "baseColorFactor" : [
                    0.5879999995231628,
                    0.5879999995231628,
                    0.5879999995231628,
                    1
                ],
                "metallicFactor" : 0,
                "roughnessFactor" : 0.8945907354354858
            }
        },
        {
            "doubleSided" : true,
            "emissiveFactor" : [
                0,
                0,
                0
            ],
            "name" : "Falcon_wp_clothes",
            "normalTexture" : {
                "index" : 1,
                "texCoord" : 0
            },
            "pbrMetallicRoughness" : {
                "baseColorFactor" : [
                    0.5879999995231628,
                    0.5879999995231628,
                    0.5879999995231628,
                    1
                ],
                "metallicFactor" : 0,
                "roughnessFactor" : 0.8945907354354858
            }
        },
        {
            "doubleSided" : true,
            "emissiveFactor" : [
                0,
                0,
                0
            ],
            "name" : "Falcons_Skill",
            "normalTexture" : {
                "index" : 2,
                "texCoord" : 0
            },
            "pbrMetallicRoughness" : {
                "baseColorFactor" : [
                    0.5879999995231628,
                    0.5879999995231628,
                    0.5879999995231628,
                    1
                ],
                "metallicFactor" : 0,
                "roughnessFactor" : 0.8945907354354858
            }
        }
    ],
    "meshes" : [
        {
            "name" : "4",
            "primitives" : [
                {
                    "attributes" : {
                        "POSITION" : 0,
                        "NORMAL" : 1,
                        "TEXCOORD_0" : 2
                    },
                    "indices" : 3,
                    "material" : 0
                },
                {
                    "attributes" : {
                        "POSITION" : 4,
                        "NORMAL" : 5,
                        "TEXCOORD_0" : 6
                    },
                    "indices" : 7,
                    "material" : 1
                },
                {
                    "attributes" : {
                        "POSITION" : 8,
                        "NORMAL" : 9,
                        "TEXCOORD_0" : 10
                    },
                    "indices" : 11,
                    "material" : 2
                }
            ]
        }
    ],
    "textures" : [
        {
            "source" : 0
        },
        {
            "source" : 1
        },
        {
            "source" : 2
        }
    ],
    "images" : [
        {
            "bufferView" : 4,
            "mimeType" : "image/png",
            "name" : "560_Falcon"
        },
        {
            "bufferView" : 9,
            "mimeType" : "image/png",
            "name" : "906_falcon_wp"
        },
        {
            "bufferView" : 14,
            "mimeType" : "image/png",
            "name" : "1143_Falcons_Skill"
        }
    ],
    "accessors" : [
        {
            "bufferView" : 0,
            "componentType" : 5126,
            "count" : 1312,
            "max" : [
                15.088876724243164,
                8.870162963867188,
                42.31106948852539
            ],
            "min" : [
                -23.899621963500977,
                -4.9358367919921875,
                -13.288433074951172
            ],
            "type" : "VEC3"
        },
        {
            "bufferView" : 1,
            "componentType" : 5126,
            "count" : 1312,
            "type" : "VEC3"
        },
        {
            "bufferView" : 2,
            "componentType" : 5126,
            "count" : 1312,
            "type" : "VEC2"
        },
        {
            "bufferView" : 3,
            "componentType" : 5123,
            "count" : 3984,
            "type" : "SCALAR"
        },
        {
            "bufferView" : 5,
            "componentType" : 5126,
            "count" : 80,
            "max" : [
                45.86937713623047,
                10.13726806640625,
                6.875469207763672
            ],
            "min" : [
                -57.33542251586914,
                2.5583648681640625,
                -10.796333312988281
            ],
            "type" : "VEC3"
        },
        {
            "bufferView" : 6,
            "componentType" : 5126,
            "count" : 80,
            "type" : "VEC3"
        },
        {
            "bufferView" : 7,
            "componentType" : 5126,
            "count" : 80,
            "type" : "VEC2"
        },
        {
            "bufferView" : 8,
            "componentType" : 5123,
            "count" : 180,
            "type" : "SCALAR"
        },
        {
            "bufferView" : 10,
            "componentType" : 5126,
            "count" : 458,
            "max" : [
                24.441377639770508,
                5.232666015625,
                -11.610031127929688
            ],
            "min" : [
                6.160477161407471,
                -8.100326538085938,
                -17.273433685302734
            ],
            "type" : "VEC3"
        },
        {
            "bufferView" : 11,
            "componentType" : 5126,
            "count" : 458,
            "type" : "VEC3"
        },
        {
            "bufferView" : 12,
            "componentType" : 5126,
            "count" : 458,
            "type" : "VEC2"
        },
        {
            "bufferView" : 13,
            "componentType" : 5123,
            "count" : 1176,
            "type" : "SCALAR"
        }
    ],
    "bufferViews" : [
        {
            "buffer" : 0,
            "byteLength" : 15744,
            "byteOffset" : 0
        },
        {
            "buffer" : 0,
            "byteLength" : 15744,
            "byteOffset" : 15744
        },
        {
            "buffer" : 0,
            "byteLength" : 10496,
            "byteOffset" : 31488
        },
        {
            "buffer" : 0,
            "byteLength" : 7968,
            "byteOffset" : 41984
        },
        {
            "buffer" : 0,
            "byteLength" : 227830,
            "byteOffset" : 49952
        },
        {
            "buffer" : 0,
            "byteLength" : 960,
            "byteOffset" : 277784
        },
        {
            "buffer" : 0,
            "byteLength" : 960,
            "byteOffset" : 278744
        },
        {
            "buffer" : 0,
            "byteLength" : 640,
            "byteOffset" : 279704
        },
        {
            "buffer" : 0,
            "byteLength" : 360,
            "byteOffset" : 280344
        },
        {
            "buffer" : 0,
            "byteLength" : 190984,
            "byteOffset" : 280704
        },
        {
            "buffer" : 0,
            "byteLength" : 5496,
            "byteOffset" : 471688
        },
        {
            "buffer" : 0,
            "byteLength" : 5496,
            "byteOffset" : 477184
        },
        {
            "buffer" : 0,
            "byteLength" : 3664,
            "byteOffset" : 482680
        },
        {
            "buffer" : 0,
            "byteLength" : 2352,
            "byteOffset" : 486344
        },
        {
            "buffer" : 0,
            "byteLength" : 18312,
            "byteOffset" : 488696
        }
    ],
    "buffers" : [
        {
            "byteLength" : 507008,
            "uri" : "data:application/octet-stream;base64,"
        }
    ]
}
