{
    "asset" : {
        "generator" : "Khronos glTF Blender I/O v1.1.46",
        "version" : "2.0"
    },
    "scene" : 0,
    "scenes" : [
        {
            "name" : "Scene",
            "nodes" : [
                0
            ]
        }
    ],
    "nodes" : [
        {
            "mesh" : 0,
            "name" : "warmachine_civilwar full"
        }
    ],
    "materials" : [
        {
            "doubleSided" : true,
            "emissiveFactor" : [
                0,
                0,
                0
            ],
            "name" : "Mat",
            "pbrMetallicRoughness" : {
                "baseColorTexture" : {
                    "index" : 0,
                    "texCoord" : 0
                },
                "metallicFactor" : 0,
                "roughnessFactor" : 0.5
            }
        }
    ],
    "meshes" : [
        {
            "name" : "warmachine_civilwar full",
            "primitives" : [
                {
                    "attributes" : {
                        "POSITION" : 0,
                        "NORMAL" : 1,
                        "TEXCOORD_0" : 2
                    },
                    "indices" : 3,
                    "material" : 0
                }
            ]
        }
    ],
    "textures" : [
        {
            "source" : 0
        }
    ],
    "images" : [
        {
            "bufferView" : 4,
            "mimeType" : "image/jpeg",
            "name" : "warmachine_civilwar_diff"
        }
    ],
    "accessors" : [
        {
            "bufferView" : 0,
            "componentType" : 5126,
            "count" : 39782,
            "max" : [
                12.08995246887207,
                108.73367309570312,
                36.76710510253906
            ],
            "min" : [
                -15.266209602355957,
                -0.26134899258613586,
                -36.76710510253906
            ],
            "type" : "VEC3"
        },
        {
            "bufferView" : 1,
            "componentType" : 5126,
            "count" : 39782,
            "type" : "VEC3"
        },
        {
            "bufferView" : 2,
            "componentType" : 5126,
            "count" : 39782,
            "type" : "VEC2"
        },
        {
            "bufferView" : 3,
            "componentType" : 5123,
            "count" : 39870,
            "type" : "SCALAR"
        }
    ],
    "bufferViews" : [
        {
            "buffer" : 0,
            "byteLength" : 477384,
            "byteOffset" : 0
        },
        {
            "buffer" : 0,
            "byteLength" : 477384,
            "byteOffset" : 477384
        },
        {
            "buffer" : 0,
            "byteLength" : 318256,
            "byteOffset" : 954768
        },
        {
            "buffer" : 0,
            "byteLength" : 79740,
            "byteOffset" : 1273024
        },
        {
            "buffer" : 0,
            "byteLength" : 275088,
            "byteOffset" : 1352764
        }
    ],
    "buffers" : [
        {
            "byteLength" : 1627852,
            "uri" : "data:application/octet-stream;base64,"
        }
    ]
}
