{
    "asset" : {
        "generator" : "Khronos glTF Blender I/O v1.1.46",
        "version" : "2.0"
    },
    "scene" : 0,
    "scenes" : [
        {
            "name" : "Scene",
            "nodes" : [
                0
            ]
        }
    ],
    "nodes" : [
        {
            "mesh" : 0,
            "name" : "Black Panther Civil War",
            "rotation" : [
                -0.5,
                0.5,
                0.5000000596046448,
                0.5000000596046448
            ]
        }
    ],
    "materials" : [
        {
            "doubleSided" : true,
            "emissiveFactor" : [
                0,
                0,
                0
            ],
            "name" : "Material__25",
            "pbrMetallicRoughness" : {
                "baseColorTexture" : {
                    "index" : 0,
                    "texCoord" : 0
                },
                "metallicFactor" : 0,
                "roughnessFactor" : 0.5
            }
        }
    ],
    "meshes" : [
        {
            "name" : "Black Panther Civil War",
            "primitives" : [
                {
                    "attributes" : {
                        "POSITION" : 0,
                        "NORMAL" : 1,
                        "TEXCOORD_0" : 2
                    },
                    "indices" : 3,
                    "material" : 0
                }
            ]
        }
    ],
    "textures" : [
        {
            "source" : 0
        }
    ],
    "images" : [
        {
            "bufferView" : 4,
            "mimeType" : "image/png",
            "name" : "panther_d"
        }
    ],
    "accessors" : [
        {
            "bufferView" : 0,
            "componentType" : 5126,
            "count" : 31771,
            "max" : [
                29.79640007019043,
                6.488500118255615,
                96.80010223388672
            ],
            "min" : [
                -29.800800323486328,
                -11.362799644470215,
                0.015399999916553497
            ],
            "type" : "VEC3"
        },
        {
            "bufferView" : 1,
            "componentType" : 5126,
            "count" : 31771,
            "type" : "VEC3"
        },
        {
            "bufferView" : 2,
            "componentType" : 5126,
            "count" : 31771,
            "type" : "VEC2"
        },
        {
            "bufferView" : 3,
            "componentType" : 5123,
            "count" : 31773,
            "type" : "SCALAR"
        }
    ],
    "bufferViews" : [
        {
            "buffer" : 0,
            "byteLength" : 381252,
            "byteOffset" : 0
        },
        {
            "buffer" : 0,
            "byteLength" : 381252,
            "byteOffset" : 381252
        },
        {
            "buffer" : 0,
            "byteLength" : 254168,
            "byteOffset" : 762504
        },
        {
            "buffer" : 0,
            "byteLength" : 63546,
            "byteOffset" : 1016672
        },
        {
            "buffer" : 0,
            "byteLength" : 571739,
            "byteOffset" : 1080220
        }
    ],
    "buffers" : [
        {
            "byteLength" : 1651960,
            "uri" : "data:application/octet-stream;base64,"
        }
    ]
}
