{
    "asset" : {
        "generator" : "Khronos glTF Blender I/O v1.1.46",
        "version" : "2.0"
    },
    "scene" : 0,
    "scenes" : [
        {
            "name" : "Scene",
            "nodes" : [
                0
            ]
        }
    ],
    "nodes" : [
        {
            "mesh" : 0,
            "name" : "Capitan America AOU",
            "rotation" : [
                0.5,
                0.5,
                -0.5,
                0.4999999701976776
            ],
            "scale" : [
                10,
                10,
                10
            ],
            "translation" : [
                0,
                0,
                0.11618852615356445
            ]
        }
    ],
    "materials" : [
        {
            "doubleSided" : true,
            "emissiveFactor" : [
                0,
                0,
                0
            ],
            "name" : "Mat",
            "pbrMetallicRoughness" : {
                "baseColorTexture" : {
                    "index" : 0,
                    "texCoord" : 0
                },
                "metallicFactor" : 0,
                "roughnessFactor" : 0.5
            }
        }
    ],
    "meshes" : [
        {
            "name" : "Capitan America AOU",
            "primitives" : [
                {
                    "attributes" : {
                        "POSITION" : 0,
                        "NORMAL" : 1,
                        "TEXCOORD_0" : 2
                    },
                    "indices" : 3,
                    "material" : 0
                }
            ]
        }
    ],
    "textures" : [
        {
            "source" : 0
        }
    ],
    "images" : [
        {
            "bufferView" : 4,
            "mimeType" : "image/png",
            "name" : "CaptainAmerica_AgeOfUltron_diff"
        }
    ],
    "accessors" : [
        {
            "bufferView" : 0,
            "componentType" : 5126,
            "count" : 38787,
            "max" : [
                3.2911999225616455,
                1.2166999578475952,
                -0.015200000256299973
            ],
            "min" : [
                -3.2911999225616455,
                -0.7537000179290771,
                -9.990599632263184
            ],
            "type" : "VEC3"
        },
        {
            "bufferView" : 1,
            "componentType" : 5126,
            "count" : 38787,
            "type" : "VEC3"
        },
        {
            "bufferView" : 2,
            "componentType" : 5126,
            "count" : 38787,
            "type" : "VEC2"
        },
        {
            "bufferView" : 3,
            "componentType" : 5123,
            "count" : 38787,
            "type" : "SCALAR"
        }
    ],
    "bufferViews" : [
        {
            "buffer" : 0,
            "byteLength" : 465444,
            "byteOffset" : 0
        },
        {
            "buffer" : 0,
            "byteLength" : 465444,
            "byteOffset" : 465444
        },
        {
            "buffer" : 0,
            "byteLength" : 310296,
            "byteOffset" : 930888
        },
        {
            "buffer" : 0,
            "byteLength" : 77574,
            "byteOffset" : 1241184
        },
        {
            "buffer" : 0,
            "byteLength" : 1721874,
            "byteOffset" : 1318760
        }
    ],
    "buffers" : [
        {
            "byteLength" : 3040636,
            "uri" : "data:application/octet-stream;base64,"
        }
    ]
}
