{
    "asset" : {
        "generator" : "Khronos glTF Blender I/O v1.1.46",
        "version" : "2.0"
    },
    "scene" : 0,
    "scenes" : [
        {
            "name" : "Scene",
            "nodes" : [
                0,
                1,
                2
            ]
        }
    ],
    "nodes" : [
        {
            "mesh" : 0,
            "name" : "6_captainamericaanadsteverogersmat_0.2_0_0",
            "rotation" : [
                0.7071068286895752,
                0,
                -0.7071068286895752,
                -4.75030326185788e-08
            ]
        },
        {
            "mesh" : 1,
            "name" : "6_captainamericaanad_0.2_0_0",
            "rotation" : [
                0.7071068286895752,
                0,
                -0.7071067094802856,
                -6.85764689478674e-08
            ]
        },
        {
            "mesh" : 2,
            "name" : "6_captainamericaanad(1)_0.2_0_0",
            "rotation" : [
                0.7071068286895752,
                0,
                -0.7071068286895752,
                -8.964988040816024e-08
            ]
        }
    ],
    "materials" : [
        {
            "doubleSided" : true,
            "emissiveFactor" : [
                0,
                0,
                0
            ],
            "name" : "6_captainamericaanadsteverogersmat_0.2_0_0",
            "pbrMetallicRoughness" : {
                "baseColorTexture" : {
                    "index" : 0,
                    "texCoord" : 0
                },
                "metallicFactor" : 0,
                "roughnessFactor" : 0.6732679605484009
            }
        },
        {
            "doubleSided" : true,
            "emissiveFactor" : [
                0,
                0,
                0
            ],
            "name" : "6_captainamericaanad_0.2_0_0",
            "pbrMetallicRoughness" : {
                "baseColorTexture" : {
                    "index" : 1,
                    "texCoord" : 0
                },
                "metallicFactor" : 0,
                "roughnessFactor" : 0.6732679605484009
            }
        },
        {
            "doubleSided" : true,
            "emissiveFactor" : [
                0,
                0,
                0
            ],
            "name" : "6_captainamericaanad(1)_0.2_0_0",
            "pbrMetallicRoughness" : {
                "baseColorTexture" : {
                    "index" : 2,
                    "texCoord" : 0
                },
                "metallicFactor" : 0,
                "roughnessFactor" : 0.6732679605484009
            }
        }
    ],
    "meshes" : [
        {
            "name" : "6_captainamericaanadsteverogersmat_0.2_0_0",
            "primitives" : [
                {
                    "attributes" : {
                        "POSITION" : 0,
                        "NORMAL" : 1,
                        "TEXCOORD_0" : 2
                    },
                    "indices" : 3,
                    "material" : 0
                }
            ]
        },
        {
            "name" : "6_captainamericaanad_0.2_0_0",
            "primitives" : [
                {
                    "attributes" : {
                        "POSITION" : 4,
                        "NORMAL" : 5,
                        "TEXCOORD_0" : 6
                    },
                    "indices" : 7,
                    "material" : 1
                }
            ]
        },
        {
            "name" : "6_captainamericaanad(1)_0.2_0_0",
            "primitives" : [
                {
                    "attributes" : {
                        "POSITION" : 8,
                        "NORMAL" : 9,
                        "TEXCOORD_0" : 10
                    },
                    "indices" : 11,
                    "material" : 2
                }
            ]
        }
    ],
    "textures" : [
        {
            "source" : 0
        },
        {
            "source" : 0
        },
        {
            "source" : 0
        }
    ],
    "images" : [
        {
            "bufferView" : 4,
            "mimeType" : "image/png",
            "name" : "CaptainAmerica_Diff"
        }
    ],
    "accessors" : [
        {
            "bufferView" : 0,
            "componentType" : 5126,
            "count" : 113,
            "max" : [
                0.2963930070400238,
                0.0010770000517368317,
                0.08890900015830994
            ],
            "min" : [
                -0.8314470052719116,
                -2.3941800594329834,
                -0.3271700143814087
            ],
            "type" : "VEC3"
        },
        {
            "bufferView" : 1,
            "componentType" : 5126,
            "count" : 113,
            "type" : "VEC3"
        },
        {
            "bufferView" : 2,
            "componentType" : 5126,
            "count" : 113,
            "type" : "VEC2"
        },
        {
            "bufferView" : 3,
            "componentType" : 5123,
            "count" : 318,
            "type" : "SCALAR"
        },
        {
            "bufferView" : 5,
            "componentType" : 5126,
            "count" : 5031,
            "max" : [
                0.837788999080658,
                0.0010770000517368317,
                0.2061839997768402
            ],
            "min" : [
                -0.6993970274925232,
                -2.535020112991333,
                -0.3271700143814087
            ],
            "type" : "VEC3"
        },
        {
            "bufferView" : 6,
            "componentType" : 5126,
            "count" : 5031,
            "type" : "VEC3"
        },
        {
            "bufferView" : 7,
            "componentType" : 5126,
            "count" : 5031,
            "type" : "VEC2"
        },
        {
            "bufferView" : 8,
            "componentType" : 5123,
            "count" : 23136,
            "type" : "SCALAR"
        },
        {
            "bufferView" : 9,
            "componentType" : 5126,
            "count" : 1504,
            "max" : [
                0.8398510217666626,
                -0.005371000152081251,
                0.14246900379657745
            ],
            "min" : [
                -0.8398510217666626,
                -2.535020112991333,
                -0.2907319962978363
            ],
            "type" : "VEC3"
        },
        {
            "bufferView" : 10,
            "componentType" : 5126,
            "count" : 1504,
            "type" : "VEC3"
        },
        {
            "bufferView" : 11,
            "componentType" : 5126,
            "count" : 1504,
            "type" : "VEC2"
        },
        {
            "bufferView" : 12,
            "componentType" : 5123,
            "count" : 6966,
            "type" : "SCALAR"
        }
    ],
    "bufferViews" : [
        {
            "buffer" : 0,
            "byteLength" : 1356,
            "byteOffset" : 0
        },
        {
            "buffer" : 0,
            "byteLength" : 1356,
            "byteOffset" : 1356
        },
        {
            "buffer" : 0,
            "byteLength" : 904,
            "byteOffset" : 2712
        },
        {
            "buffer" : 0,
            "byteLength" : 636,
            "byteOffset" : 3616
        },
        {
            "buffer" : 0,
            "byteLength" : 1554178,
            "byteOffset" : 4252
        },
        {
            "buffer" : 0,
            "byteLength" : 60372,
            "byteOffset" : 1558432
        },
        {
            "buffer" : 0,
            "byteLength" : 60372,
            "byteOffset" : 1618804
        },
        {
            "buffer" : 0,
            "byteLength" : 40248,
            "byteOffset" : 1679176
        },
        {
            "buffer" : 0,
            "byteLength" : 46272,
            "byteOffset" : 1719424
        },
        {
            "buffer" : 0,
            "byteLength" : 18048,
            "byteOffset" : 1765696
        },
        {
            "buffer" : 0,
            "byteLength" : 18048,
            "byteOffset" : 1783744
        },
        {
            "buffer" : 0,
            "byteLength" : 12032,
            "byteOffset" : 1801792
        },
        {
            "buffer" : 0,
            "byteLength" : 13932,
            "byteOffset" : 1813824
        }
    ],
    "buffers" : [
        {
            "byteLength" : 1827756,
            "uri" : "data:application/octet-stream;base64,"
        }
    ]
}
