{
    "asset" : {
        "generator" : "Khronos glTF Blender I/O v1.1.46",
        "version" : "2.0"
    },
    "scene" : 0,
    "scenes" : [
        {
            "name" : "Scene",
            "nodes" : [
                5
            ]
        }
    ],
    "nodes" : [
        {
            "mesh" : 0,
            "name" : "Object_4"
        },
        {
            "mesh" : 1,
            "name" : "Object_5"
        },
        {
            "children" : [
                0,
                1
            ],
            "name" : "Node"
        },
        {
            "children" : [
                2
            ],
            "name" : "Mark 42.obj.cleaner.gles",
            "translation" : [
                -0.4154999852180481,
                -0.00279999990016222,
                0.1818999946117401
            ]
        },
        {
            "children" : [
                3
            ],
            "name" : "RootNode (model correction matrix)"
        },
        {
            "children" : [
                4
            ],
            "name" : "RootNode (gltf orientation matrix)",
            "rotation" : [
                0,
                0.7071068286895752,
                0,
                0.7071067690849304
            ]
        }
    ],
    "materials" : [
        {
            "doubleSided" : true,
            "emissiveFactor" : [
                1,
                1,
                1
            ],
            "emissiveTexture" : {
                "index" : 0,
                "texCoord" : 0
            },
            "name" : "Material__26",
            "occlusionTexture" : {
                "index" : 1,
                "texCoord" : 0
            },
            "pbrMetallicRoughness" : {
                "baseColorTexture" : {
                    "index" : 2,
                    "texCoord" : 0
                },
                "metallicRoughnessTexture" : {
                    "index" : 1,
                    "texCoord" : 0
                }
            }
        }
    ],
    "meshes" : [
        {
            "name" : "Mesh_0",
            "primitives" : [
                {
                    "attributes" : {
                        "POSITION" : 0,
                        "NORMAL" : 1,
                        "TEXCOORD_0" : 2
                    },
                    "indices" : 3,
                    "material" : 0
                }
            ]
        },
        {
            "name" : "Mesh_1",
            "primitives" : [
                {
                    "attributes" : {
                        "POSITION" : 4,
                        "NORMAL" : 5,
                        "TEXCOORD_0" : 6
                    },
                    "indices" : 7,
                    "material" : 0
                }
            ]
        }
    ],
    "textures" : [
        {
            "source" : 0
        },
        {
            "source" : 1
        },
        {
            "source" : 2
        }
    ],
    "images" : [
        {
            "bufferView" : 4,
            "mimeType" : "image/png",
            "name" : "Material__26_emissive"
        },
        {
            "bufferView" : 5,
            "mimeType" : "image/png",
            "name" : "Material__26_metallicRoughness"
        },
        {
            "bufferView" : 6,
            "mimeType" : "image/png",
            "name" : "Material__26_baseColor"
        }
    ],
    "accessors" : [
        {
            "bufferView" : 0,
            "componentType" : 5126,
            "count" : 2396,
            "max" : [
                0.8309999704360962,
                1.8033000230789185,
                0
            ],
            "min" : [
                0,
                0,
                -0.3815000057220459
            ],
            "type" : "VEC3"
        },
        {
            "bufferView" : 1,
            "componentType" : 5126,
            "count" : 2396,
            "type" : "VEC3"
        },
        {
            "bufferView" : 2,
            "componentType" : 5126,
            "count" : 2396,
            "type" : "VEC2"
        },
        {
            "bufferView" : 3,
            "componentType" : 5123,
            "count" : 9999,
            "type" : "SCALAR"
        },
        {
            "bufferView" : 7,
            "componentType" : 5126,
            "count" : 1236,
            "max" : [
                0.4154999852180481,
                1.8033000230789185,
                0
            ],
            "min" : [
                0.022399991750717163,
                0,
                -0.3815000057220459
            ],
            "type" : "VEC3"
        },
        {
            "bufferView" : 8,
            "componentType" : 5126,
            "count" : 1236,
            "type" : "VEC3"
        },
        {
            "bufferView" : 9,
            "componentType" : 5126,
            "count" : 1236,
            "type" : "VEC2"
        },
        {
            "bufferView" : 10,
            "componentType" : 5123,
            "count" : 4947,
            "type" : "SCALAR"
        }
    ],
    "bufferViews" : [
        {
            "buffer" : 0,
            "byteLength" : 28752,
            "byteOffset" : 0
        },
        {
            "buffer" : 0,
            "byteLength" : 28752,
            "byteOffset" : 28752
        },
        {
            "buffer" : 0,
            "byteLength" : 19168,
            "byteOffset" : 57504
        },
        {
            "buffer" : 0,
            "byteLength" : 19998,
            "byteOffset" : 76672
        },
        {
            "buffer" : 0,
            "byteLength" : 957742,
            "byteOffset" : 96672
        },
        {
            "buffer" : 0,
            "byteLength" : 698961,
            "byteOffset" : 1054416
        },
        {
            "buffer" : 0,
            "byteLength" : 957742,
            "byteOffset" : 1753380
        },
        {
            "buffer" : 0,
            "byteLength" : 14832,
            "byteOffset" : 2711124
        },
        {
            "buffer" : 0,
            "byteLength" : 14832,
            "byteOffset" : 2725956
        },
        {
            "buffer" : 0,
            "byteLength" : 9888,
            "byteOffset" : 2740788
        },
        {
            "buffer" : 0,
            "byteLength" : 9894,
            "byteOffset" : 2750676
        }
    ],
    "buffers" : [
        {
            "byteLength" : 2760572,
            "uri" : "data:application/octet-stream;base64,"
        }
    ]
}
