{
    "asset" : {
        "generator" : "Khronos glTF Blender I/O v1.1.46",
        "version" : "2.0"
    },
    "scene" : 0,
    "scenes" : [
        {
            "name" : "Scene",
            "nodes" : [
                0
            ]
        }
    ],
    "nodes" : [
        {
            "mesh" : 0,
            "name" : "Thanos.002",
            "rotation" : [
                0.7071067690849304,
                0,
                -0.7071068286895752,
                -9.500604392087553e-08
            ],
            "scale" : [
                192.02642822265625,
                192.0264434814453,
                192.0264434814453
            ]
        }
    ],
    "materials" : [
        {
            "doubleSided" : true,
            "emissiveFactor" : [
                0,
                0,
                0
            ],
            "name" : "Model001_Material001.001",
            "pbrMetallicRoughness" : {
                "baseColorTexture" : {
                    "index" : 0,
                    "texCoord" : 0
                },
                "metallicFactor" : 0,
                "roughnessFactor" : 1
            }
        },
        {
            "doubleSided" : true,
            "emissiveFactor" : [
                0,
                0,
                0
            ],
            "name" : "Model001_Material002.001",
            "pbrMetallicRoughness" : {
                "baseColorTexture" : {
                    "index" : 1,
                    "texCoord" : 0
                },
                "metallicFactor" : 0,
                "roughnessFactor" : 1
            }
        }
    ],
    "meshes" : [
        {
            "name" : "Thanos.002",
            "primitives" : [
                {
                    "attributes" : {
                        "POSITION" : 0,
                        "NORMAL" : 1,
                        "TEXCOORD_0" : 2
                    },
                    "indices" : 3,
                    "material" : 0
                },
                {
                    "attributes" : {
                        "POSITION" : 4,
                        "NORMAL" : 5,
                        "TEXCOORD_0" : 6
                    },
                    "indices" : 7,
                    "material" : 1
                }
            ]
        }
    ],
    "textures" : [
        {
            "source" : 0
        },
        {
            "source" : 1
        }
    ],
    "images" : [
        {
            "bufferView" : 4,
            "mimeType" : "image/png",
            "name" : "Image_0"
        },
        {
            "bufferView" : 9,
            "mimeType" : "image/png",
            "name" : "Image_1"
        }
    ],
    "accessors" : [
        {
            "bufferView" : 0,
            "componentType" : 5126,
            "count" : 3990,
            "max" : [
                0.34730198979377747,
                0.00029460800578817725,
                0.16033120453357697
            ],
            "min" : [
                -0.1684052050113678,
                -1.042546033859253,
                -0.10651840269565582
            ],
            "type" : "VEC3"
        },
        {
            "bufferView" : 1,
            "componentType" : 5126,
            "count" : 3990,
            "type" : "VEC3"
        },
        {
            "bufferView" : 2,
            "componentType" : 5126,
            "count" : 3990,
            "type" : "VEC2"
        },
        {
            "bufferView" : 3,
            "componentType" : 5123,
            "count" : 9153,
            "type" : "SCALAR"
        },
        {
            "bufferView" : 5,
            "componentType" : 5126,
            "count" : 2458,
            "max" : [
                0.31837400794029236,
                -0.2685840129852295,
                0.16001659631729126
            ],
            "min" : [
                -0.33928999304771423,
                -1.1412999629974365,
                -0.10948780179023743
            ],
            "type" : "VEC3"
        },
        {
            "bufferView" : 6,
            "componentType" : 5126,
            "count" : 2458,
            "type" : "VEC3"
        },
        {
            "bufferView" : 7,
            "componentType" : 5126,
            "count" : 2458,
            "type" : "VEC2"
        },
        {
            "bufferView" : 8,
            "componentType" : 5123,
            "count" : 10683,
            "type" : "SCALAR"
        }
    ],
    "bufferViews" : [
        {
            "buffer" : 0,
            "byteLength" : 47880,
            "byteOffset" : 0
        },
        {
            "buffer" : 0,
            "byteLength" : 47880,
            "byteOffset" : 47880
        },
        {
            "buffer" : 0,
            "byteLength" : 31920,
            "byteOffset" : 95760
        },
        {
            "buffer" : 0,
            "byteLength" : 18306,
            "byteOffset" : 127680
        },
        {
            "buffer" : 0,
            "byteLength" : 192344,
            "byteOffset" : 145988
        },
        {
            "buffer" : 0,
            "byteLength" : 29496,
            "byteOffset" : 338332
        },
        {
            "buffer" : 0,
            "byteLength" : 29496,
            "byteOffset" : 367828
        },
        {
            "buffer" : 0,
            "byteLength" : 19664,
            "byteOffset" : 397324
        },
        {
            "buffer" : 0,
            "byteLength" : 21366,
            "byteOffset" : 416988
        },
        {
            "buffer" : 0,
            "byteLength" : 212749,
            "byteOffset" : 438356
        }
    ],
    "buffers" : [
        {
            "byteLength" : 651108,
            "uri" : "data:application/octet-stream;base64,"
        }
    ]
}
